<?xml version="1.0" standalone="no"?>
<!DOCTYPE svg PUBLIC "-//W3C//DTD SVG 20010904//EN"
 "http://www.w3.org/TR/2001/REC-SVG-20010904/DTD/svg10.dtd">
<svg version="1.0" xmlns="http://www.w3.org/2000/svg"
 width="505.000000pt" height="494.000000pt" viewBox="0 0 505.000000 494.000000"
 preserveAspectRatio="xMidYMid meet">

<g transform="translate(0.000000,494.000000) scale(0.100000,-0.100000)"
fill="#000000" stroke="none">
<path d="M3515 4040 c-4 -7 -16 -9 -27 -6 -18 4 -20 1 -14 -32 3 -20 6 -43 6
-49 0 -30 17 -9 33 39 16 50 17 72 2 48z"/>
<path d="M1607 3903 c-4 -3 -7 -566 -7 -1250 l0 -1243 -415 0 -415 0 0 -127
c0 -71 3 -212 7 -316 l6 -187 1754 0 1753 0 0 315 0 315 -100 0 -100 0 0 1244
c0 1204 -2 1278 -28 1251 -3 -3 -1 -9 6 -14 9 -6 12 -276 10 -1242 l-3 -1234
-655 -3 c-585 -3 -829 2 -793 15 8 3 9 10 4 21 -13 24 -61 156 -61 166 0 8
-25 68 -41 99 -8 15 -3 20 28 34 104 43 262 73 443 83 74 4 118 8 98 8 -29 2
-38 6 -38 20 0 10 -10 29 -22 42 -13 14 -23 27 -24 30 0 3 -7 19 -14 35 -7 17
-13 33 -12 38 1 4 -2 7 -8 7 -5 0 -10 9 -10 21 0 13 37 58 95 117 115 118 173
196 244 329 52 97 55 101 93 107 21 4 36 11 33 16 -3 5 7 33 22 62 26 49 28
62 28 168 1 184 2 193 23 185 42 -17 54 -14 19 5 l-38 21 2 71 c2 67 3 71 31
80 15 5 28 14 28 19 0 12 -27 11 -35 -1 -13 -22 -21 -7 -31 58 -9 55 -30 117
-70 209 -4 8 21 24 65 44 67 30 71 34 70 63 0 17 -3 25 -6 18 -5 -12 -46 41
-82 106 -13 24 -14 24 -62 -52 -27 -42 -53 -76 -57 -76 -5 0 -16 8 -25 18 -15
17 -15 20 7 53 55 82 62 95 43 80 -16 -13 -36 -16 -104 -20 -15 -1 -23 -7 -23
-20 0 -18 -3 -17 -65 5 -94 34 -103 29 -16 -8 107 -45 199 -134 251 -242 55
-116 65 -169 65 -336 -1 -116 -5 -163 -23 -234 -63 -253 -194 -473 -359 -606
-134 -108 -228 -142 -389 -141 -113 0 -137 4 -205 33 -81 34 -82 60 -14 258
95 272 265 544 539 858 86 98 107 114 121 91 19 -29 -11 -87 -114 -222 -256
-337 -388 -556 -491 -815 -29 -73 -35 -82 -54 -77 -16 5 -17 4 -6 -3 8 -6 41
-15 72 -22 105 -24 229 16 337 109 62 52 155 174 202 266 l33 63 -32 36 c-38
44 -41 81 -10 146 l21 45 8 -45 c4 -25 5 -64 2 -87 -3 -22 0 -49 5 -60 9 -16
13 -11 32 32 134 311 87 764 -91 882 -37 25 -52 28 -118 28 -60 -1 -86 -6
-120 -24 -241 -127 -417 -574 -498 -1266 -25 -217 -25 -640 0 -748 21 -88 14
-110 -32 -105 -84 10 -159 307 -220 868 -29 267 -62 682 -76 965 -3 55 -7 114
-10 130 -3 19 2 45 14 68 10 20 15 37 11 37 -22 0 -61 -21 -55 -30 6 -10 -64
-50 -89 -50 -8 0 -19 7 -24 16 -5 9 -14 15 -20 13 -7 -2 14 -38 46 -79 105
-138 125 -180 35 -75 l-57 67 -10 -28 c-9 -28 -7 -31 40 -60 18 -10 18 -12 1
-38 -10 -15 -32 -35 -49 -45 l-30 -19 34 -7 c77 -17 76 -15 65 -97 -5 -40 -14
-76 -20 -80 -6 -3 6 -10 26 -13 30 -6 37 -12 37 -31 0 -13 -5 -35 -12 -49 -10
-22 -8 -30 12 -57 26 -35 26 -41 10 -138 -15 -84 -29 -104 -69 -95 -24 5 -31
12 -31 30 0 19 -6 24 -35 27 -19 2 -35 1 -35 -2 0 -5 44 -64 175 -233 41 -54
59 -107 36 -107 -5 0 -33 29 -62 65 -29 36 -55 65 -57 65 -3 0 -3 -3 1 -6 3
-3 -8 -33 -25 -65 -17 -33 -29 -61 -27 -63 2 -2 37 -20 77 -40 l73 -37 -6 -37
c-9 -51 -25 -92 -37 -92 -6 0 -26 -13 -45 -30 -35 -31 -53 -38 -53 -20 0 6
-11 22 -25 35 -30 31 -84 34 -108 7 -24 -26 -21 -31 13 -29 21 1 30 7 30 20 0
9 5 17 10 17 6 0 10 -6 10 -12 0 -7 14 -28 31 -46 l31 -33 -23 -25 c-12 -13
-32 -25 -43 -25 -19 -1 -19 -2 -2 -6 10 -3 30 1 43 8 19 10 38 11 92 1 38 -6
81 -16 97 -22 l28 -11 -29 -24 c-29 -23 -29 -24 -7 -25 12 0 22 5 22 10 0 6 5
10 10 10 6 0 10 -7 10 -16 0 -8 7 -22 15 -31 22 -21 14 -37 -19 -41 -25 -3
-26 -5 -11 -16 13 -9 17 -27 16 -75 0 -62 -24 -121 -69 -173 -14 -17 -11 -18
49 -19 103 -2 110 -6 131 -74 9 -33 24 -72 32 -86 9 -14 13 -29 9 -33 -3 -3
-132 -6 -285 -6 l-278 0 0 1240 0 1240 664 0 c433 0 667 3 671 10 7 11 -1327
15 -1338 3z m1285 -404 c36 -58 58 -147 57 -229 0 -36 -3 -59 -6 -52 -4 10
-10 10 -29 -3 -13 -8 -24 -13 -24 -11 0 3 -32 -8 -71 -25 -40 -16 -79 -29 -88
-29 -10 0 -22 -5 -29 -12 -7 -7 -12 -8 -12 -4 0 5 -6 4 -12 -1 -12 -9 -45 -20
-73 -23 -5 -1 -16 -6 -22 -12 -20 -17 -43 -1 -43 29 0 41 32 140 71 218 38 78
124 177 178 205 44 23 63 13 103 -51z m-367 -462 c26 -46 58 -130 68 -184 5
-25 3 -31 -8 -27 -18 7 -87 -15 -81 -25 3 -4 -9 -3 -27 2 l-32 10 6 81 c7 89
28 186 40 186 5 0 20 -19 34 -43z m605 -47 c-5 -29 -25 -76 -43 -105 l-33 -53
-29 21 c-17 12 -33 26 -37 32 -4 5 -8 6 -8 1 0 -6 -9 0 -21 13 -12 12 -27 20
-35 17 -27 -10 -13 2 41 39 64 42 166 97 171 92 2 -2 0 -28 -6 -57z m-655
-230 c4 -16 12 -30 18 -30 22 -1 -27 -30 -49 -30 -28 0 -55 26 -47 45 3 9 16
18 29 21 13 3 24 10 24 15 0 22 19 6 25 -21z m965 -49 c-11 -21 -30 -37 -30
-25 0 8 30 44 37 44 2 0 -1 -9 -7 -19z m-542 -275 c-48 -50 -54 -53 -72 -40
-11 8 -32 14 -46 14 -25 1 -25 1 5 17 42 24 138 62 153 63 7 0 -11 -24 -40
-54z m-88 -88 c7 -23 5 -30 -11 -39 -41 -22 -98 16 -83 55 4 11 14 13 33 10
21 -5 30 -1 36 13 6 14 8 15 12 3 2 -8 8 -27 13 -42z m-366 -251 c7 -11 6 -37
-2 -84 -41 -221 -53 -303 -63 -443 -6 -85 -13 -157 -15 -159 -6 -6 -9 185 -6
304 4 123 28 343 42 379 11 29 27 30 44 3z m76 -415 c0 -9 -10 -12 -27 -10
-36 4 -44 35 -11 40 24 3 38 -7 38 -30z m-1472 -388 c25 -17 29 -56 7 -74 -8
-7 -35 -15 -60 -18 -39 -4 -45 -8 -45 -27 0 -15 8 -25 23 -30 19 -7 17 -9 -16
-12 -20 -2 -52 -2 -70 0 -29 4 -30 5 -9 12 20 7 22 14 22 72 0 56 -3 66 -20
70 -45 12 -15 23 63 23 59 0 89 -5 105 -16z m226 10 c45 -17 39 -76 -8 -88
l-24 -6 26 -28 c34 -35 58 -45 83 -32 16 9 19 22 19 71 0 52 -3 62 -20 66 -48
13 -12 23 80 23 l100 0 0 -40 c0 -46 -13 -52 -32 -12 -10 20 -22 28 -46 30
-30 3 -32 1 -32 -27 0 -38 17 -40 32 -3 12 25 13 22 18 -43 l5 -70 20 32 c26
43 35 41 35 -7 l0 -40 -140 0 -140 0 -26 40 c-32 48 -54 52 -54 10 0 -20 5
-30 15 -30 8 0 15 -4 15 -10 0 -6 -27 -10 -62 -9 -60 0 -62 1 -40 16 19 13 22
25 22 75 0 51 -3 61 -20 65 -11 3 -20 9 -20 14 0 10 169 12 194 3z m416 -4 c9
-5 19 -5 27 2 20 16 25 5 21 -47 l-3 -48 -25 39 c-18 28 -33 40 -54 42 -36 4
-46 -10 -46 -70 0 -50 18 -78 51 -78 20 0 59 33 59 50 0 6 5 10 10 10 21 0 9
-29 -22 -55 -26 -22 -39 -26 -67 -21 -46 7 -91 55 -91 97 0 62 88 112 140 79z
m190 1 c0 -5 -7 -11 -15 -15 -11 -4 -15 -22 -15 -71 0 -51 3 -65 15 -65 8 0
15 -4 15 -10 0 -6 -27 -10 -62 -9 -60 0 -62 1 -40 16 19 13 22 25 22 75 0 51
-3 61 -20 65 -40 11 -18 23 40 23 33 0 60 -4 60 -9z m211 -20 c37 -37 38 -79
3 -120 -47 -57 -145 -47 -179 18 -32 63 20 131 102 131 36 0 50 -6 74 -29z
m179 19 c0 -5 -9 -10 -20 -10 -18 0 -20 -7 -20 -65 0 -60 2 -66 25 -77 19 -8
31 -8 50 0 23 11 25 17 25 73 0 52 -3 62 -20 66 -37 10 -20 23 30 23 28 0 50
-4 50 -10 0 -5 -6 -10 -14 -10 -19 0 -26 -22 -26 -80 0 -76 -47 -106 -124 -79
l-41 14 -3 69 c-3 58 -6 69 -22 73 -41 11 -17 23 45 23 37 0 65 -4 65 -10z
m300 -27 c0 -40 -6 -41 -36 -7 -18 19 -32 24 -56 22 -48 -5 -46 -25 4 -38 75
-18 93 -32 93 -70 0 -48 -39 -68 -97 -51 -28 9 -43 9 -52 2 -18 -15 -26 -3
-26 39 0 50 9 55 34 18 32 -48 106 -64 106 -24 0 10 -19 21 -52 31 -82 24
-107 58 -71 97 14 15 29 18 85 16 l68 -3 0 -32z m88 5 c2 -19 -3 -30 -18 -38
-24 -13 -42 -4 -20 10 11 7 11 11 1 24 -15 18 -5 38 17 34 10 -2 18 -15 20
-30z m327 -6 c3 -18 3 -37 0 -42 -3 -6 3 -10 14 -10 24 0 28 -15 6 -24 -9 -3
-15 -18 -15 -36 0 -24 -4 -31 -17 -29 -10 2 -33 -1 -50 -5 -41 -10 -98 8 -118
37 -8 12 -15 38 -15 58 0 29 7 43 31 64 28 23 39 26 95 23 62 -3 63 -3 69 -36z
m192 -42 c20 -44 42 -80 49 -80 8 0 14 -4 14 -10 0 -6 -26 -10 -57 -10 -48 1
-55 3 -42 13 23 17 12 37 -21 37 -36 0 -48 -17 -24 -35 17 -13 14 -14 -30 -15
l-49 0 24 23 c13 12 37 52 53 90 15 37 32 67 38 67 5 0 25 -36 45 -80z m267
74 c45 -17 39 -76 -8 -88 l-24 -6 26 -28 c34 -35 58 -45 83 -32 16 9 19 22 19
71 0 52 -3 62 -20 66 -11 3 -20 10 -20 15 0 6 35 9 90 6 82 -3 92 -5 117 -30
38 -38 37 -92 -1 -124 -25 -23 -35 -24 -156 -24 l-130 0 -26 40 c-32 48 -54
52 -54 10 0 -20 5 -30 15 -30 8 0 15 -4 15 -10 0 -6 -27 -10 -62 -9 -60 0 -62
1 -40 16 19 13 22 25 22 75 0 51 -3 61 -20 65 -11 3 -20 9 -20 14 0 10 169 12
194 3z m504 -28 c5 -39 -13 -55 -29 -25 -15 30 -28 39 -56 39 -19 0 -23 -5
-23 -31 0 -35 23 -36 28 -1 7 46 21 19 24 -45 l3 -68 20 32 c26 43 35 41 35
-7 l0 -40 -102 0 c-88 1 -100 3 -85 14 23 18 25 146 2 146 -8 0 -15 5 -15 10
0 7 35 10 98 8 l97 -3 3 -29z m144 -23 l58 -57 0 32 c0 19 -8 40 -20 52 -11
11 -20 22 -20 25 0 3 20 5 45 5 47 0 54 -6 31 -24 -10 -7 -16 -37 -19 -84 -2
-40 -7 -75 -9 -78 -3 -2 -35 27 -71 66 -35 38 -68 70 -71 70 -8 0 -8 -58 0
-87 4 -13 12 -23 20 -23 7 0 16 -4 19 -10 4 -6 -13 -10 -44 -10 -28 0 -51 5
-51 10 0 6 7 10 15 10 12 0 15 14 15 70 0 56 -3 70 -15 70 -8 0 -15 5 -15 10
0 6 17 10 37 10 32 0 46 -8 95 -57z m-2479 -301 c10 -9 17 -28 16 -46 -1 -17
2 -39 6 -48 4 -11 3 -18 -4 -18 -6 0 -11 5 -11 11 0 7 -11 8 -30 4 -42 -9 -90
38 -90 89 l0 36 48 -7 c26 -3 55 -13 65 -21z m1948 16 c-1 -5 -1 -21 -1 -37 0
-40 -46 -84 -81 -77 -14 3 -31 0 -37 -6 -7 -7 -15 -9 -19 -5 -4 4 -2 12 5 19
6 6 9 23 6 37 -3 14 1 34 9 45 18 25 119 45 118 24z m-1681 -18 c0 -5 -7 -10
-15 -10 -11 0 -15 -12 -15 -45 0 -25 -4 -45 -10 -45 -5 0 -10 20 -10 45 0 33
-4 45 -14 45 -8 0 -18 5 -21 10 -4 6 12 10 39 10 25 0 46 -4 46 -10z m92 -15
c8 -19 8 -31 0 -50 -15 -32 -37 -41 -68 -27 -18 9 -24 19 -24 45 0 40 15 57
52 57 21 0 32 -7 40 -25z m118 16 c0 -5 -12 -11 -27 -13 -22 -2 -29 -9 -31
-31 -3 -27 21 -48 36 -32 4 4 1 10 -5 12 -20 7 -15 23 7 23 16 0 20 -7 20 -31
0 -28 -2 -30 -32 -27 -23 2 -37 11 -47 29 -13 24 -13 29 2 53 12 18 26 26 47
26 17 0 30 -4 30 -9z m101 -15 c27 -58 -27 -111 -71 -71 -38 34 -18 95 31 95
21 0 32 -6 40 -24z m93 2 c9 -12 16 -28 16 -35 0 -22 -39 -53 -65 -53 -24 0
-25 3 -25 55 0 54 0 55 29 55 20 0 35 -8 45 -22z m117 -18 l6 -35 2 38 c1 35
2 37 36 37 19 0 35 -4 35 -10 0 -5 -11 -10 -25 -10 -14 0 -25 -4 -25 -10 0 -5
11 -10 25 -10 31 0 33 -17 3 -22 -13 -2 -23 -7 -23 -13 0 -5 10 -11 23 -13 35
-5 26 -22 -13 -22 -25 0 -35 4 -35 16 0 14 -1 14 -16 0 -8 -9 -26 -16 -40 -16
-23 0 -24 3 -24 56 l0 55 33 -3 c28 -3 33 -7 38 -38z m209 20 c0 -13 7 -20 20
-20 13 0 20 7 20 20 0 11 5 20 10 20 6 0 10 -25 10 -55 0 -30 -4 -55 -10 -55
-5 0 -10 11 -10 25 0 18 -5 25 -20 25 -15 0 -20 -7 -20 -25 0 -14 -4 -25 -10
-25 -5 0 -10 20 -10 45 0 38 -3 45 -20 45 -17 0 -20 -7 -20 -45 0 -25 -4 -45
-10 -45 -5 0 -10 20 -10 45 0 33 -4 45 -15 45 -8 0 -15 5 -15 10 0 6 25 10 55
10 48 0 55 -2 55 -20z m140 10 c0 -5 -11 -10 -25 -10 -14 0 -25 -4 -25 -10 0
-5 9 -10 19 -10 11 0 23 -4 26 -10 4 -6 -5 -10 -19 -10 -16 0 -26 -6 -26 -15
0 -9 9 -15 25 -15 14 0 25 -4 25 -10 0 -5 -16 -10 -35 -10 l-35 0 0 55 0 55
35 0 c19 0 35 -4 35 -10z m110 0 c0 -5 -8 -10 -19 -10 -40 0 -53 -52 -16 -66
25 -10 31 5 9 21 -18 14 -18 14 9 15 25 0 28 -3 25 -27 -2 -22 -9 -29 -29 -31
-50 -6 -79 57 -43 92 17 18 64 22 64 6z m40 -35 c0 -41 2 -45 25 -45 14 0 25
-4 25 -10 0 -5 -16 -10 -35 -10 l-35 0 0 55 c0 30 5 55 10 55 6 0 10 -20 10
-45z m128 33 c17 -17 15 -64 -4 -82 -44 -45 -105 16 -74 75 12 22 59 26 78 7z
m89 -4 c3 -9 1 -24 -5 -34 -8 -13 -7 -21 6 -33 26 -26 4 -33 -23 -7 l-25 23 0
-21 c0 -12 -4 -22 -10 -22 -5 0 -10 25 -10 55 0 55 0 55 30 55 19 0 33 -6 37
-16z m39 -6 l6 -21 19 24 c23 31 37 17 15 -15 -9 -14 -16 -37 -16 -51 0 -14
-4 -25 -10 -25 -5 0 -10 10 -10 21 0 12 -9 37 -21 55 -17 28 -18 34 -5 34 8 0
18 -10 22 -22z m104 -23 c0 -25 0 -48 1 -52 0 -4 -4 -9 -10 -11 -7 -2 -11 17
-11 52 0 31 5 56 10 56 6 0 10 -20 10 -45z"/>
<path d="M950 1255 c0 -30 3 -35 24 -35 30 0 50 23 41 50 -4 14 -15 20 -36 20
-27 0 -29 -3 -29 -35z"/>
<path d="M1170 1260 c0 -30 2 -31 38 -28 32 3 37 6 37 28 0 22 -5 25 -37 28
-36 3 -38 2 -38 -28z"/>
<path d="M1420 1172 c0 -25 3 -29 19 -25 15 4 18 10 12 26 -12 33 -31 32 -31
-1z"/>
<path d="M1976 1268 c-44 -62 13 -159 65 -112 21 19 26 82 9 115 -14 26 -55
24 -74 -3z"/>
<path d="M2860 1275 c-19 -23 -15 -107 6 -122 23 -17 49 -17 63 1 15 18 3 46
-20 46 -10 0 -19 5 -19 10 0 6 18 10 39 10 34 0 38 2 34 20 -11 43 -78 66
-103 35z"/>
<path d="M3107 1229 c-7 -27 -4 -32 17 -27 12 2 13 7 2 27 l-13 23 -6 -23z"/>
<path d="M3340 1260 c0 -30 2 -31 38 -28 32 3 37 6 37 28 0 22 -5 25 -37 28
-36 3 -38 2 -38 -28z"/>
<path d="M3590 1220 l0 -70 35 0 c38 0 55 20 55 67 0 42 -26 73 -61 73 l-29 0
0 -70z"/>
<path d="M3840 1172 c0 -25 3 -29 19 -25 15 4 18 10 12 26 -12 33 -31 32 -31
-1z"/>
<path d="M1907 933 c-13 -12 -7 -51 9 -57 23 -9 34 2 34 35 0 21 -5 29 -18 29
-10 0 -22 -3 -25 -7z"/>
<path d="M2125 919 c-5 -14 -1 -27 9 -37 15 -15 17 -15 32 0 20 20 10 58 -16
58 -10 0 -22 -10 -25 -21z"/>
<path d="M2230 906 c0 -37 5 -42 28 -27 19 12 11 55 -10 59 -15 3 -18 -4 -18
-32z"/>
<path d="M2350 930 c0 -5 7 -10 15 -10 8 0 15 5 15 10 0 6 -7 10 -15 10 -8 0
-15 -4 -15 -10z"/>
<path d="M2350 884 c0 -17 22 -14 28 4 2 7 -3 12 -12 12 -9 0 -16 -7 -16 -16z"/>
<path d="M2971 926 c-15 -18 2 -56 24 -56 16 0 31 43 20 59 -9 15 -30 14 -44
-3z"/>
<path d="M3070 930 c0 -5 7 -10 15 -10 8 0 15 5 15 10 0 6 -7 10 -15 10 -8 0
-15 -4 -15 -10z"/>
<path d="M3815 3900 c-4 -6 35 -10 109 -10 71 0 116 4 116 10 0 6 -43 10 -109
10 -63 0 -112 -4 -116 -10z"/>
<path d="M3253 3893 c42 -2 112 -2 155 0 42 1 7 3 -78 3 -85 0 -120 -2 -77 -3z"/>
<path d="M3518 3893 c6 -2 18 -2 25 0 6 3 1 5 -13 5 -14 0 -19 -2 -12 -5z"/>
<path d="M3048 3723 c7 -3 16 -2 19 1 4 3 -2 6 -13 5 -11 0 -14 -3 -6 -6z"/>
<path d="M2728 3684 c-16 -8 -28 -17 -28 -19 0 -10 16 -4 40 15 30 23 25 25
-12 4z"/>
<path d="M2092 3565 c3 -4 21 -14 39 -23 71 -37 67 -7 90 -632 20 -541 24
-618 35 -608 2 3 11 65 20 139 21 186 59 411 89 532 59 233 161 477 244 582 9
11 -2 4 -23 -15 -77 -71 -222 -311 -206 -341 6 -10 -10 -62 -51 -160 -60 -142
-73 -168 -84 -157 -3 3 -10 137 -15 299 -10 318 -10 317 -71 360 -24 18 -80
37 -67 24z"/>
<path d="M1772 3500 c-11 -18 -8 -22 29 -40 37 -19 39 -19 30 -3 -6 10 -18 28
-28 41 -18 22 -18 22 -31 2z"/>
<path d="M3576 3232 c-2 -4 -1 -14 5 -22 7 -12 9 -10 9 8 0 23 -5 28 -14 14z"/>
<path d="M3611 3224 c0 -11 3 -14 6 -6 3 7 2 16 -1 19 -3 4 -6 -2 -5 -13z"/>
<path d="M3695 3050 c-10 -11 -33 -25 -51 -32 -34 -12 -46 -28 -21 -28 20 0
75 37 87 59 14 26 8 27 -15 1z"/>
<path d="M3570 3000 c0 -5 5 -10 10 -10 6 0 10 5 10 10 0 6 -4 10 -10 10 -5 0
-10 -4 -10 -10z"/>
<path d="M1692 2897 c15 -44 18 -45 18 -10 0 18 -6 33 -14 36 -12 5 -13 0 -4
-26z"/>
<path d="M1720 2728 c0 -7 -13 -29 -30 -48 -16 -19 -28 -35 -27 -36 4 -4 197
-100 197 -98 0 5 -132 194 -136 194 -2 0 -4 -6 -4 -12z"/>
<path d="M1720 2299 c0 -5 5 -7 10 -4 6 3 10 8 10 11 0 2 -4 4 -10 4 -5 0 -10
-5 -10 -11z"/>
<path d="M1756 2295 c4 -8 11 -15 16 -15 6 0 5 6 -2 15 -7 8 -14 15 -16 15 -2
0 -1 -7 2 -15z"/>
</g>
</svg>
